<?xml version="1.0" encoding="UTF-8"?>
<!DOCTYPE svg PUBLIC "-//W3C//DTD SVG 1.1//EN" "http://www.w3.org/Graphics/SVG/1.1/DTD/svg11.dtd">
<!-- Creator: CorelDRAW X8 -->
<svg xmlns="http://www.w3.org/2000/svg" xml:space="preserve" width="550mm" height="550mm" version="1.1" style="shape-rendering:geometricPrecision; text-rendering:geometricPrecision; image-rendering:optimizeQuality; fill-rule:evenodd; clip-rule:evenodd"
viewBox="0 0 55000 55000"
 xmlns:xlink="http://www.w3.org/1999/xlink">
 <defs>
  <style type="text/css">
   <![CDATA[
    .str0 {stroke:#2B2A29;stroke-width:20}
    .fil0 {fill:none}
    .fil1 {fill:#A8D4AF}
   ]]>
  </style>
    <clipPath id="id0">
     <path d="M2489 5727l41073 651 0 37870 -41073 -651 0 -37870z"/>
    </clipPath>
    <clipPath id="id1">
     <path d="M6818 38180c-12,-1 -24,-1 -37,-2 1574,-3835 3148,-7671 4722,-11506 1703,-4151 3406,-8302 5110,-12453 552,-1345 1103,-2689 1655,-4034 608,815 1216,1631 1824,2446 1976,2651 3952,5301 5929,7951 2324,3117 4648,6234 6972,9351 2324,3117 4648,6234 6972,9352 -5524,-185 -11049,-369 -16573,-553 -5525,-184 -11049,-368 -16574,-552z"/>
    </clipPath>
    <clipPath id="id2">
     <path d="M13028 -1105l45860 -72 0 45680 -45860 72 0 -45680z"/>
    </clipPath>
    <clipPath id="id3">
     <path d="M31970 29629c-2756,-3911 -5512,-7822 -8268,-11733 -1811,-2571 -3623,-5141 -5434,-7711 518,-144 1036,-288 1554,-432 5523,-1536 11047,-3071 16570,-4607 794,-220 1588,-441 2382,-662 0,0 0,0 0,0 80,-1930 4399,5475 5791,6749 146,133 322,321 525,557 1596,1859 4776,6672 6865,10925 1629,3316 2596,6291 1631,7261 -614,618 -2178,1828 -4029,3156 -3113,2233 -7040,4799 -8641,5450 325,0 -2087,685 -2142,702 -294,-416 -587,-833 -881,-1250 -1974,-2801 -3949,-5603 -5923,-8405z"/>
    </clipPath>
    <clipPath id="id4">
     <path d="M11136 36732c-5,0 -10,0 -15,0 1050,-2596 2100,-5192 3150,-7787 1119,-2767 2238,-5533 3358,-8300 355,-877 710,-1755 1065,-2632 580,697 1161,1394 1741,2092 1614,1938 3228,3877 4842,5815 1583,1902 3166,3803 4749,5704 1583,1901 3166,3802 4749,5704 -3940,-100 -7880,-199 -11820,-298 -3939,-99 -7879,-199 -11819,-298z"/>
    </clipPath>
 </defs>
 <g id="Слой_x0020_1">
  <metadata id="CorelCorpID_0Corel-Layer"/>
  <rect class="fil0 str0" width="55000" height="55000"/>
  <g id="_2390721636752">
   <g style="clip-path:url(#id0)">
    <image x="2489" y="5727" width="41072" height="38520" xlink:href="палатка_Images\палатка_ImgID1.png"/>
   </g>
  </g>
  <g>
   <g style="clip-path:url(#id1)">
    <image x="6739" y="10143" width="33268" height="29184" xlink:href="палатка_Images\палатка_ImgID2.png"/>
   </g>
   <path class="fil0 str0" d="M6818 38180c-12,-1 -24,-1 -37,-2 1574,-3835 3148,-7671 4722,-11506 1703,-4151 3406,-8302 5110,-12453 552,-1345 1103,-2689 1655,-4034 608,815 1216,1631 1824,2446 1976,2651 3952,5301 5929,7951 2324,3117 4648,6234 6972,9351 2324,3117 4648,6234 6972,9352 -5524,-185 -11049,-369 -16573,-553 -5525,-184 -11049,-368 -16574,-552z"/>
  </g>
  <g>
   <g style="clip-path:url(#id2)">
    <image x="13028" y="-1177" width="45861" height="45752" xlink:href="палатка_Images\палатка_ImgID3.png"/>
   </g>
  </g>
  <g>
   <g style="clip-path:url(#id3)">
    <image x="18226" y="4123" width="35786" height="35203" xlink:href="палатка_Images\палатка_ImgID4.png"/>
   </g>
   <path class="fil0 str0" d="M31970 29629c-2756,-3911 -5512,-7822 -8268,-11733 -1811,-2571 -3623,-5141 -5434,-7711 518,-144 1036,-288 1554,-432 5523,-1536 11047,-3071 16570,-4607 794,-220 1588,-441 2382,-662 0,0 0,0 0,0 80,-1930 4399,5475 5791,6749 146,133 322,321 525,557 1596,1859 4776,6672 6865,10925 1629,3316 2596,6291 1631,7261 -614,618 -2178,1828 -4029,3156 -3113,2233 -7040,4799 -8641,5450 325,0 -2087,685 -2142,702 -294,-416 -587,-833 -881,-1250 -1974,-2801 -3949,-5603 -5923,-8405z"/>
  </g>
  <polygon class="fil1 str0" points="34775,37328 18694,18013 11121,36732 "/>
  <g>
   <g style="clip-path:url(#id4)">
    <image x="11079" y="17971" width="23738" height="19399" xlink:href="палатка_Images\палатка_ImgID5.png"/>
   </g>
   <path class="fil0 str0" d="M11136 36732c-5,0 -10,0 -15,0 1050,-2596 2100,-5192 3150,-7787 1119,-2767 2238,-5533 3358,-8300 355,-877 710,-1755 1065,-2632 580,697 1161,1394 1741,2092 1614,1938 3228,3877 4842,5815 1583,1902 3166,3803 4749,5704 1583,1901 3166,3802 4749,5704 -3940,-100 -7880,-199 -11820,-298 -3939,-99 -7879,-199 -11819,-298z"/>
  </g>
 </g>
</svg>
