<?xml version="1.0" encoding="UTF-8"?>
<!DOCTYPE svg PUBLIC "-//W3C//DTD SVG 1.1//EN" "http://www.w3.org/Graphics/SVG/1.1/DTD/svg11.dtd">
<!-- Creator: CorelDRAW X8 -->
<svg xmlns="http://www.w3.org/2000/svg" xml:space="preserve" width="550mm" height="550mm" version="1.1" style="shape-rendering:geometricPrecision; text-rendering:geometricPrecision; image-rendering:optimizeQuality; fill-rule:evenodd; clip-rule:evenodd"
viewBox="0 0 55000 55000"
 xmlns:xlink="http://www.w3.org/1999/xlink">
 <defs>
  <style type="text/css">
   <![CDATA[
    .str0 {stroke:#2B2A29;stroke-width:20}
    .fil0 {fill:none}
    .fil4 {fill:#FEFEFE}
    .fil5 {fill:#434242}
    .fil3 {fill:#A2D9F7}
    .fil1 {fill:#66C3D0}
    .fil6 {fill:#57A7B3}
    .fil7 {fill:#2EB8EB}
    .fil2 {fill:#008DD2}
    .fil47 {fill:url(#id2)}
    .fil63 {fill:url(#id3)}
    .fil45 {fill:url(#id4)}
    .fil27 {fill:url(#id5)}
    .fil65 {fill:url(#id6)}
    .fil36 {fill:url(#id7)}
    .fil80 {fill:url(#id8)}
    .fil72 {fill:url(#id9)}
    .fil44 {fill:url(#id10)}
    .fil62 {fill:url(#id11)}
    .fil35 {fill:url(#id12)}
    .fil26 {fill:url(#id13)}
    .fil8 {fill:url(#id14)}
    .fil18 {fill:url(#id15)}
    .fil55 {fill:url(#id16)}
    .fil16 {fill:url(#id17)}
    .fil53 {fill:url(#id18)}
    .fil9 {fill:url(#id19)}
    .fil73 {fill:url(#id20)}
    .fil25 {fill:url(#id21)}
    .fil61 {fill:url(#id22)}
    .fil34 {fill:url(#id23)}
    .fil43 {fill:url(#id24)}
    .fil64 {fill:url(#id25)}
    .fil46 {fill:url(#id26)}
    .fil54 {fill:url(#id27)}
    .fil17 {fill:url(#id28)}
    .fil19 {fill:url(#id29)}
    .fil10 {fill:url(#id30)}
    .fil66 {fill:url(#id31)}
    .fil37 {fill:url(#id32)}
    .fil74 {fill:url(#id33)}
    .fil28 {fill:url(#id34)}
    .fil69 {fill:url(#id35)}
    .fil77 {fill:url(#id36)}
    .fil31 {fill:url(#id37)}
    .fil40 {fill:url(#id38)}
    .fil59 {fill:url(#id39)}
    .fil13 {fill:url(#id40)}
    .fil50 {fill:url(#id41)}
    .fil22 {fill:url(#id42)}
    .fil70 {fill:url(#id43)}
    .fil14 {fill:url(#id44)}
    .fil41 {fill:url(#id45)}
    .fil32 {fill:url(#id46)}
    .fil23 {fill:url(#id47)}
    .fil78 {fill:url(#id48)}
    .fil49 {fill:url(#id49)}
    .fil12 {fill:url(#id50)}
    .fil39 {fill:url(#id51)}
    .fil68 {fill:url(#id52)}
    .fil33 {fill:url(#id53)}
    .fil24 {fill:url(#id54)}
    .fil29 {fill:url(#id55)}
    .fil48 {fill:url(#id56)}
    .fil67 {fill:url(#id57)}
    .fil75 {fill:url(#id58)}
    .fil11 {fill:url(#id59)}
    .fil38 {fill:url(#id60)}
    .fil56 {fill:url(#id61)}
    .fil58 {fill:url(#id62)}
    .fil21 {fill:url(#id63)}
    .fil60 {fill:url(#id64)}
    .fil76 {fill:url(#id65)}
    .fil30 {fill:url(#id66)}
    .fil71 {fill:url(#id67)}
    .fil42 {fill:url(#id68)}
    .fil79 {fill:url(#id69)}
    .fil57 {fill:url(#id70)}
    .fil20 {fill:url(#id71)}
    .fil51 {fill:url(#id72)}
    .fil15 {fill:url(#id73)}
    .fil52 {fill:url(#id74)}
   ]]>
  </style>
   <mask id="id0">
  <linearGradient id="id1" gradientUnits="userSpaceOnUse" x1="32923.7" y1="25784.1" x2="32331" y2="14608.1">
   <stop offset="0" style="stop-opacity:1; stop-color:white"/>
   <stop offset="1" style="stop-opacity:0; stop-color:white"/>
  </linearGradient>
    <rect style="fill:url(#id1)" x="13328" y="9325" width="23363" height="31442"/>
   </mask>
  <radialGradient id="id2" gradientUnits="userSpaceOnUse" gradientTransform="matrix(-0.0327418 -1.11224 1.11224 -0.0327418 -53381 58944)" cx="4528.03" cy="52198.8" r="367.89" fx="4528.03" fy="52198.8">
   <stop offset="0" style="stop-opacity:1; stop-color:#FEFEFE"/>
   <stop offset="1" style="stop-opacity:1; stop-color:#A2D9F7"/>
  </radialGradient>
  <radialGradient id="id3" gradientUnits="userSpaceOnUse" gradientTransform="matrix(-0.0327418 -1.11224 1.11224 -0.0327418 -6646 109553)" xlink:href="#id2" cx="49914.9" cy="52322.9" r="367.89" fx="49914.9" fy="52322.9">
  </radialGradient>
  <radialGradient id="id4" gradientUnits="userSpaceOnUse" gradientTransform="matrix(-0.0327418 -1.11224 1.11224 -0.0327418 -716 111831)" xlink:href="#id2" cx="53673.5" cy="50480.7" r="367.89" fx="53673.5" fy="50480.7">
  </radialGradient>
  <radialGradient id="id5" gradientUnits="userSpaceOnUse" gradientTransform="matrix(-0.0327418 -1.11224 1.11224 -0.0327418 49198 56115)" xlink:href="#id2" cx="49149.1" cy="1403.24" r="367.89" fx="49149.1" fy="1403.24">
  </radialGradient>
  <radialGradient id="id6" gradientUnits="userSpaceOnUse" gradientTransform="matrix(-0.0327418 -1.11224 1.11224 -0.0327418 -46972 47956)" xlink:href="#id2" cx="2095.81" cy="44178" r="367.89" fx="2095.81" fy="44178">
  </radialGradient>
  <radialGradient id="id7" gradientUnits="userSpaceOnUse" gradientTransform="matrix(-0.0327418 -1.11224 1.11224 -0.0327418 23423 86969)" xlink:href="#id2" cx="52491.1" cy="27679.8" r="367.89" fx="52491.1" fy="27679.8">
  </radialGradient>
  <radialGradient id="id8" gradientUnits="userSpaceOnUse" gradientTransform="matrix(-0.0327098 -1.11224 1.11224 -0.0327098 -3147 8462)" xlink:href="#id2" cx="2674.96" cy="5313.27" r="1963.99" fx="2674.96" fy="5313.27">
  </radialGradient>
  <radialGradient id="id9" gradientUnits="userSpaceOnUse" gradientTransform="matrix(-0.0327098 -1.11224 1.11224 -0.0327098 -25932 32472)" xlink:href="#id2" cx="4052.8" cy="27078.2" r="1963.99" fx="4052.8" fy="27078.2">
  </radialGradient>
  <radialGradient id="id10" gradientUnits="userSpaceOnUse" gradientTransform="matrix(-0.0327419 -1.11224 1.11224 -0.0327419 2135 109236)" xlink:href="#id2" cx="53698.3" cy="47940.8" r="367.89" fx="53698.3" fy="47940.8">
  </radialGradient>
  <radialGradient id="id11" gradientUnits="userSpaceOnUse" gradientTransform="matrix(-0.0327419 -1.11224 1.11224 -0.0327419 -9022 106521)" xlink:href="#id2" cx="47385.8" cy="52110.2" r="367.89" fx="47385.8" fy="52110.2">
  </radialGradient>
  <radialGradient id="id12" gradientUnits="userSpaceOnUse" gradientTransform="matrix(-0.0327419 -1.11224 1.11224 -0.0327419 26363 84475)" xlink:href="#id2" cx="52605.1" cy="25142.6" r="367.89" fx="52605.1" fy="25142.6">
  </radialGradient>
  <radialGradient id="id13" gradientUnits="userSpaceOnUse" gradientTransform="matrix(-0.0327419 -1.11224 1.11224 -0.0327419 46354 53751)" xlink:href="#id2" cx="46733" cy="1716.69" r="367.89" fx="46733" fy="1716.69">
  </radialGradient>
  <radialGradient id="id14" gradientUnits="userSpaceOnUse" gradientTransform="matrix(-0.0327419 -1.11224 1.11224 -0.0327419 -679 4464)" xlink:href="#id2" cx="1851.03" cy="2329.23" r="367.89" fx="1851.03" fy="2329.23">
  </radialGradient>
  <radialGradient id="id15" gradientUnits="userSpaceOnUse" gradientTransform="matrix(-0.0327418 -1.11224 1.11224 -0.0327418 25344 31786)" xlink:href="#id2" cx="26708.6" cy="2013.41" r="367.89" fx="26708.6" fy="2013.41">
  </radialGradient>
  <radialGradient id="id16" gradientUnits="userSpaceOnUse" gradientTransform="matrix(-0.0327418 -1.11224 1.11224 -0.0327418 -29655 83640)" xlink:href="#id2" cx="27088.5" cy="51814.4" r="367.89" fx="27088.5" fy="51814.4">
  </radialGradient>
  <radialGradient id="id17" gradientUnits="userSpaceOnUse" gradientTransform="matrix(-0.0327098 -1.11224 1.11224 -0.0327098 19453 26734)" xlink:href="#id2" cx="21628.7" cy="2592.42" r="1963.99" fx="21628.7" fy="2592.42">
  </radialGradient>
  <radialGradient id="id18" gradientUnits="userSpaceOnUse" gradientTransform="matrix(-0.0327098 -1.11224 1.11224 -0.0327098 -35161 78263)" xlink:href="#id2" cx="22024.8" cy="52062.8" r="1963.99" fx="22024.8" fy="52062.8">
  </radialGradient>
  <radialGradient id="id19" gradientUnits="userSpaceOnUse" gradientTransform="matrix(-0.0327418 -1.11224 1.11224 -0.0327418 2800 6018)" xlink:href="#id2" cx="4161.03" cy="1345.89" r="367.89" fx="4161.03" fy="1345.89">
  </radialGradient>
  <radialGradient id="id20" gradientUnits="userSpaceOnUse" gradientTransform="matrix(-0.0327418 -1.11224 1.11224 -0.0327418 -18808 27822)" xlink:href="#id2" cx="5001.15" cy="21554" r="367.89" fx="5001.15" fy="21554">
  </radialGradient>
  <radialGradient id="id21" gradientUnits="userSpaceOnUse" gradientTransform="matrix(-0.0327098 -1.11224 1.11224 -0.0327098 43263 51441)" xlink:href="#id2" cx="44232.3" cy="2172.67" r="1963.99" fx="44232.3" fy="2172.67">
  </radialGradient>
  <radialGradient id="id22" gradientUnits="userSpaceOnUse" gradientTransform="matrix(-0.0327098 -1.11224 1.11224 -0.0327098 -12302 104304)" xlink:href="#id2" cx="44846.5" cy="52700.3" r="1963.99" fx="44846.5" fy="52700.3">
  </radialGradient>
  <radialGradient id="id23" gradientUnits="userSpaceOnUse" gradientTransform="matrix(-0.0327098 -1.11224 1.11224 -0.0327098 28811 82702)" xlink:href="#id2" cx="52847.3" cy="23165.3" r="1963.99" fx="52847.3" fy="23165.3">
  </radialGradient>
  <radialGradient id="id24" gradientUnits="userSpaceOnUse" gradientTransform="matrix(-0.0327098 -1.11224 1.11224 -0.0327098 4317 107150)" xlink:href="#id2" cx="53670.9" cy="45951.9" r="1963.99" fx="53670.9" fy="45951.9">
  </radialGradient>
  <radialGradient id="id25" gradientUnits="userSpaceOnUse" gradientTransform="matrix(-0.0327419 -1.11224 1.11224 -0.0327419 -50111 50188)" xlink:href="#id2" cx="1766.36" cy="46694.6" r="367.89" fx="1766.36" fy="46694.6">
  </radialGradient>
  <radialGradient id="id26" gradientUnits="userSpaceOnUse" gradientTransform="matrix(-0.0327419 -1.11224 1.11224 -0.0327419 -56730 57035)" xlink:href="#id2" cx="2105.03" cy="52959.9" r="367.89" fx="2105.03" fy="52959.9">
  </radialGradient>
  <radialGradient id="id27" gradientUnits="userSpaceOnUse" gradientTransform="matrix(-0.0327419 -1.11224 1.11224 -0.0327419 -32223 80765)" xlink:href="#id2" cx="24549.1" cy="51765.4" r="367.89" fx="24549.1" fy="51765.4">
  </radialGradient>
  <radialGradient id="id28" gradientUnits="userSpaceOnUse" gradientTransform="matrix(-0.0327419 -1.11224 1.11224 -0.0327419 22699 28981)" xlink:href="#id2" cx="24168.7" cy="2033.3" r="367.89" fx="24168.7" fy="2033.3">
  </radialGradient>
  <radialGradient id="id29" gradientUnits="userSpaceOnUse" gradientTransform="matrix(0.659753 -1.23815 1.23815 0.659753 7327 36827)" xlink:href="#id2" cx="29167.3" cy="2097.96" r="676.12" fx="29167.3" fy="2097.96">
  </radialGradient>
  <radialGradient id="id30" gradientUnits="userSpaceOnUse" gradientTransform="matrix(0.659753 -1.23815 1.23815 0.659753 1108 8444)" xlink:href="#id2" cx="6570.1" cy="910.27" r="676.12" fx="6570.1" fy="910.27">
  </radialGradient>
  <radialGradient id="id31" gradientUnits="userSpaceOnUse" gradientTransform="matrix(0.659753 -1.23815 1.23815 0.659753 -50890 16908)" xlink:href="#id2" cx="2195.23" cy="41704.8" r="676.12" fx="2195.23" fy="41704.8">
  </radialGradient>
  <radialGradient id="id32" gradientUnits="userSpaceOnUse" gradientTransform="matrix(0.659753 -1.23815 1.23815 0.659753 -19665 75172)" xlink:href="#id2" cx="52392" cy="30280" r="676.12" fx="52392" fy="30280">
  </radialGradient>
  <radialGradient id="id33" gradientUnits="userSpaceOnUse" gradientTransform="matrix(0.659753 -1.23815 1.23815 0.659753 -21831 13619)" xlink:href="#id2" cx="5721.92" cy="19204.3" r="676.12" fx="5721.92" fy="19204.3">
  </radialGradient>
  <radialGradient id="id34" gradientUnits="userSpaceOnUse" gradientTransform="matrix(0.659753 -1.23815 1.23815 0.659753 8894 68519)" xlink:href="#id2" cx="53289.9" cy="7460.65" r="676.12" fx="53289.9" fy="7460.65">
  </radialGradient>
  <radialGradient id="id35" gradientUnits="userSpaceOnUse" gradientTransform="matrix(-1.083 -0.923191 0.923194 -1.08301 -24594 74324)" xlink:href="#id2" cx="3349.17" cy="34196.7" r="648.81" fx="3349.17" fy="34196.7">
  </radialGradient>
  <radialGradient id="id36" gradientUnits="userSpaceOnUse" gradientTransform="matrix(-1.083 -0.923191 0.923194 -1.08301 1322 29887)" xlink:href="#id2" cx="5845.67" cy="11757.2" r="648.81" fx="5845.67" fy="11757.2">
  </radialGradient>
  <radialGradient id="id37" gradientUnits="userSpaceOnUse" gradientTransform="matrix(-1.083 -0.923191 0.923194 -1.08301 96816 80526)" xlink:href="#id2" cx="53168.7" cy="15093.9" r="648.81" fx="53168.7" fy="15093.9">
  </radialGradient>
  <radialGradient id="id38" gradientUnits="userSpaceOnUse" gradientTransform="matrix(-1.083 -0.923191 0.923194 -1.08301 75011 127737)" xlink:href="#id2" cx="52815.3" cy="37915.8" r="648.81" fx="52815.3" fy="37915.8">
  </radialGradient>
  <radialGradient id="id39" gradientUnits="userSpaceOnUse" gradientTransform="matrix(-1.083 -0.923191 0.923194 -1.08301 29435 142859)" xlink:href="#id2" cx="37216.6" cy="52088.4" r="648.81" fx="37216.6" fy="52088.4">
  </radialGradient>
  <radialGradient id="id40" gradientUnits="userSpaceOnUse" gradientTransform="matrix(-1.083 -0.923191 0.923194 -1.08301 28195 15540)" xlink:href="#id2" cx="14077.4" cy="1221.51" r="648.81" fx="14077.4" fy="1221.51">
  </radialGradient>
  <radialGradient id="id41" gradientUnits="userSpaceOnUse" gradientTransform="matrix(-1.083 -0.923191 0.923194 -1.08301 -16509 118744)" xlink:href="#id2" cx="14492.8" cy="50582.6" r="648.81" fx="14492.8" fy="50582.6">
  </radialGradient>
  <radialGradient id="id42" gradientUnits="userSpaceOnUse" gradientTransform="matrix(-1.083 -0.923191 0.923194 -1.08301 73781 40300)" xlink:href="#id2" cx="36772" cy="3049.89" r="648.81" fx="36772" fy="3049.89">
  </radialGradient>
  <radialGradient id="id43" gradientUnits="userSpaceOnUse" gradientTransform="matrix(0.491925 -1.22021 1.22021 0.491927 -36862 20506)" xlink:href="#id2" cx="3601.72" cy="31709.4" r="728.24" fx="3601.72" fy="31709.4">
  </radialGradient>
  <radialGradient id="id44" gradientUnits="userSpaceOnUse" gradientTransform="matrix(0.491925 -1.22021 1.22021 0.491927 6069 20994)" xlink:href="#id2" cx="16427.9" cy="1866.53" r="728.24" fx="16427.9" fy="1866.53">
  </radialGradient>
  <radialGradient id="id45" gradientUnits="userSpaceOnUse" gradientTransform="matrix(0.491925 -1.22021 1.22021 0.491927 -22479 85176)" xlink:href="#id2" cx="52953.2" cy="40470.9" r="728.24" fx="52953.2" fy="40470.9">
  </radialGradient>
  <radialGradient id="id46" gradientUnits="userSpaceOnUse" gradientTransform="matrix(0.491925 -1.22021 1.22021 0.491927 5351 73566)" xlink:href="#id2" cx="52937.7" cy="17656.8" r="728.24" fx="52937.7" fy="17656.8">
  </radialGradient>
  <radialGradient id="id47" gradientUnits="userSpaceOnUse" gradientTransform="matrix(0.491925 -1.22021 1.22021 0.491927 16203 49380)" xlink:href="#id2" cx="39201.3" cy="3043.5" r="728.24" fx="39201.3" fy="3043.5">
  </radialGradient>
  <radialGradient id="id48" gradientUnits="userSpaceOnUse" gradientTransform="matrix(0.491925 -1.22021 1.22021 0.491927 -9080 10629)" xlink:href="#id2" cx="4783.41" cy="9432.87" r="728.24" fx="4783.41" fy="9432.87">
  </radialGradient>
  <radialGradient id="id49" gradientUnits="userSpaceOnUse" gradientTransform="matrix(-0.34996 1.17785 -1.17785 -0.34996 76249 54191)" xlink:href="#id2" cx="12183.1" cy="50772.3" r="750.72" fx="12183.1" fy="50772.3">
  </radialGradient>
  <radialGradient id="id50" gradientUnits="userSpaceOnUse" gradientTransform="matrix(-0.34996 1.17785 -1.17785 -0.34996 16689 -13312)" xlink:href="#id2" cx="11904.3" cy="525.5" r="750.72" fx="11904.3" fy="525.5">
  </radialGradient>
  <radialGradient id="id51" gradientUnits="userSpaceOnUse" gradientTransform="matrix(-0.34996 1.17785 -1.17785 -0.34996 113024 -14487)" xlink:href="#id2" cx="52852.4" cy="35382.6" r="750.72" fx="52852.4" fy="35382.6">
  </radialGradient>
  <radialGradient id="id52" gradientUnits="userSpaceOnUse" gradientTransform="matrix(-0.34996 1.17785 -1.17785 -0.34996 47459 45849)" xlink:href="#id2" cx="3135.42" cy="36698.9" r="750.72" fx="3135.42" fy="36698.9">
  </radialGradient>
  <radialGradient id="id53" gradientUnits="userSpaceOnUse" gradientTransform="matrix(-0.369883 -1.24176 1.24176 -0.369882 47768 94034)" xlink:href="#id2" cx="53298.8" cy="20330.2" r="1499.26" fx="53298.8" fy="20330.2">
  </radialGradient>
  <radialGradient id="id54" gradientUnits="userSpaceOnUse" gradientTransform="matrix(-0.369883 -1.24176 1.24176 -0.369882 54360 55856)" xlink:href="#id2" cx="42072.6" cy="2636.73" r="1499.26" fx="42072.6" fy="2636.73">
  </radialGradient>
  <radialGradient id="id55" gradientUnits="userSpaceOnUse" gradientTransform="matrix(-1.27867 0.698392 -0.698392 -1.27867 128508 -14512)" xlink:href="#id2" cx="53337.5" cy="9978.95" r="573.45" fx="53337.5" fy="9978.95">
  </radialGradient>
  <radialGradient id="id56" gradientUnits="userSpaceOnUse" gradientTransform="matrix(-1.27867 0.698392 -0.698392 -1.27867 56960 109897)" xlink:href="#id2" cx="9338.24" cy="51090.8" r="573.45" fx="9338.24" fy="51090.8">
  </radialGradient>
  <radialGradient id="id57" gradientUnits="userSpaceOnUse" gradientTransform="matrix(-1.27867 0.698392 -0.698392 -1.27867 32769 87564)" xlink:href="#id2" cx="2379.48" cy="39157.1" r="573.45" fx="2379.48" fy="39157.1">
  </radialGradient>
  <radialGradient id="id58" gradientUnits="userSpaceOnUse" gradientTransform="matrix(-1.27867 0.698392 -0.698392 -1.27867 25934 33725)" xlink:href="#id2" cx="6257.32" cy="16717.9" r="573.45" fx="6257.32" fy="16717.9">
  </radialGradient>
  <radialGradient id="id59" gradientUnits="userSpaceOnUse" gradientTransform="matrix(-1.27867 0.698392 -0.698392 -1.27867 20996 -4986)" xlink:href="#id2" cx="9036.1" cy="581.57" r="573.45" fx="9036.1" fy="581.57">
  </radialGradient>
  <radialGradient id="id60" gradientUnits="userSpaceOnUse" gradientTransform="matrix(-1.27867 0.698392 -0.698392 -1.27867 142300 38147)" xlink:href="#id2" cx="52395.6" cy="32799.9" r="573.45" fx="52395.6" fy="32799.9">
  </radialGradient>
  <radialGradient id="id61" gradientUnits="userSpaceOnUse" gradientTransform="matrix(0.659753 -1.23815 1.23815 0.659753 -54174 54234)" xlink:href="#id2" cx="29547.4" cy="51873.7" r="676.12" fx="29547.4" fy="51873.7">
  </radialGradient>
  <radialGradient id="id62" gradientUnits="userSpaceOnUse" gradientTransform="matrix(-0.34996 1.17785 -1.17785 -0.34996 108295 29003)" xlink:href="#id2" cx="34904.1" cy="51938.2" r="750.72" fx="34904.1" fy="51938.2">
  </radialGradient>
  <radialGradient id="id63" gradientUnits="userSpaceOnUse" gradientTransform="matrix(-0.34996 1.17785 -1.17785 -0.34996 49694 -37022)" xlink:href="#id2" cx="34486.1" cy="2664.79" r="750.72" fx="34486.1" fy="2664.79">
  </radialGradient>
  <radialGradient id="id64" gradientUnits="userSpaceOnUse" gradientTransform="matrix(0.491925 -1.22021 1.22021 0.491927 -43762 74972)" xlink:href="#id2" cx="39636.6" cy="52368.6" r="728.24" fx="39636.6" fy="52368.6">
  </radialGradient>
  <radialGradient id="id65" gradientUnits="userSpaceOnUse" gradientTransform="matrix(-0.34996 1.17785 -1.17785 -0.34996 25705 11409)" xlink:href="#id2" cx="6624.21" cy="14231.1" r="750.72" fx="6624.21" fy="14231.1">
  </radialGradient>
  <radialGradient id="id66" gradientUnits="userSpaceOnUse" gradientTransform="matrix(-0.34996 1.17785 -1.17785 -0.34996 87169 -46184)" xlink:href="#id2" cx="53609.5" cy="12563.6" r="750.72" fx="53609.5" fy="12563.6">
  </radialGradient>
  <radialGradient id="id67" gradientUnits="userSpaceOnUse" gradientTransform="matrix(-0.369883 -1.24176 1.24176 -0.369882 -30625 45389)" xlink:href="#id2" cx="4215.1" cy="29312.9" r="1499.26" fx="4215.1" fy="29312.9">
  </radialGradient>
  <radialGradient id="id68" gradientUnits="userSpaceOnUse" gradientTransform="matrix(-0.369883 -1.24176 1.24176 -0.369882 19947 125702)" xlink:href="#id2" cx="53653.6" cy="43125.9" r="1499.26" fx="53653.6" fy="43125.9">
  </radialGradient>
  <radialGradient id="id69" gradientUnits="userSpaceOnUse" gradientTransform="matrix(-0.369883 -1.24176 1.24176 -0.369882 -3602 14990)" xlink:href="#id2" cx="4001.69" cy="7315.33" r="1499.26" fx="4001.69" fy="7315.33">
  </radialGradient>
  <radialGradient id="id70" gradientUnits="userSpaceOnUse" gradientTransform="matrix(-1.27867 0.698392 -0.698392 -1.27867 109206 95784)" xlink:href="#id2" cx="32032.8" cy="51852.8" r="573.45" fx="32032.8" fy="51852.8">
  </radialGradient>
  <radialGradient id="id71" gradientUnits="userSpaceOnUse" gradientTransform="matrix(-1.27867 0.698392 -0.698392 -1.27867 73666 -17046)" xlink:href="#id2" cx="31648.3" cy="2219.3" r="573.45" fx="31648.3" fy="2219.3">
  </radialGradient>
  <radialGradient id="id72" gradientUnits="userSpaceOnUse" gradientTransform="matrix(0.491925 -1.22021 1.22021 0.491927 -53192 46381)" xlink:href="#id2" cx="16925.3" cy="50640.1" r="728.24" fx="16925.3" fy="50640.1">
  </radialGradient>
  <radialGradient id="id73" gradientUnits="userSpaceOnUse" gradientTransform="matrix(-0.369883 -1.24176 1.24176 -0.369882 23742 27080)" xlink:href="#id2" cx="19350.4" cy="2227.17" r="1499.26" fx="19350.4" fy="2227.17">
  </radialGradient>
  <radialGradient id="id74" gradientUnits="userSpaceOnUse" gradientTransform="matrix(-0.369883 -1.24176 1.24176 -0.369882 -36272 94625)" xlink:href="#id2" cx="19836.7" cy="51093.6" r="1499.26" fx="19836.7" fy="51093.6">
  </radialGradient>
 </defs>
 <g id="Слой_x0020_1">
  <metadata id="CorelCorpID_0Corel-Layer"/>
  <path class="fil0 str0" d="M13265 34126c385,-1232 1008,-584 1620,-2455 238,-728 1964,-3025 2914,-3175 312,-49 1805,-997 3044,-1097 876,-70 3034,-550 3937,-512 783,34 3246,-753 3838,-1411 533,-592 964,-74 1411,-1683 195,-698 443,-498 589,-1689 69,-555 345,-991 300,-1948 -37,-789 34,-2631 -243,-3302 -190,-462 203,-2046 201,-2074"/>
  <path class="fil0 str0" d="M30675 16854c-268,-64 -2369,-978 -2503,-1169 -15,-21 -918,-680 -1074,-820 -215,-193 -758,-1856 -741,-2228 26,-561 -280,-1415 -5,-2161 179,-486 130,-1708 1007,-296 892,1436 2301,74 3512,2094 168,279 320,1430 270,257 -8,-190 542,-1078 954,-1162 430,-88 2582,-671 2665,-1060 83,-389 693,-1213 1251,-907 291,160 575,3059 487,3491 -87,427 -720,1325 -1039,1639 -368,361 -1551,1171 -2034,1463 -160,97 -604,542 -591,706 81,301 291,2933 316,3448 42,870 222,1189 442,1949 129,444 900,4434 893,4663 -5,189 304,1594 275,1963 0,1238 -18,1508 -755,2616 -256,385 -696,896 -889,1344 -155,362 -942,1704 -1314,802 -12,-30 -5,-94 -5,-127"/>
  <path class="fil0 str0" d="M32245 33771c364,1071 1168,233 1547,1430 98,310 410,1418 735,1418 337,0 265,-191 607,-515 491,-466 395,-1470 1016,-2242 326,-406 746,-4314 417,-5009 -119,-252 -233,-2656 -404,-3071 -117,-283 -344,-1843 -551,-2179 -296,-482 -28,-604 -783,-1545 -14,-17 -21,-44 -26,-65 -100,12 -216,-1067 -421,-1450 -164,-308 -824,-2211 -797,-2519 1,-7 -374,-1394 -359,-1736 3,-73 -27,-59 -43,-105"/>
  <path class="fil0 str0" d="M34382 20543c127,489 270,2228 537,2683 187,318 698,2749 698,3180 0,1444 276,2717 276,4279 0,937 -107,846 -193,1542l2 42c-193,326 -558,1391 -797,1657 -102,112 -854,1596 -854,1666 0,351 189,1080 635,1080"/>
  <path class="fil0 str0" d="M32245 33771c-279,445 1244,598 1335,726 9,13 182,609 351,871 69,106 23,96 120,224"/>
  <path class="fil0 str0" d="M33580 34497c348,-391 1609,-3707 1593,-4344 -16,-644 85,-1630 85,-2392 0,-673 -27,-1331 -191,-1969 -2,-4 -142,-1056 -291,-1418 -117,-284 -527,-1592 -533,-1880 0,-10 -693,-2123 -763,-2396 -66,-253 -424,-1229 -424,-1418"/>
  <path class="fil0 str0" d="M34527 36619c-63,644 943,1824 1500,2210 662,460 1083,1474 -55,1545 -611,38 -942,362 -2143,362 -477,0 -1560,125 -1868,-228 -627,-717 -1683,-490 -1963,-1693 -15,-62 -381,-828 -447,-1129 -55,-254 -322,-633 -335,-1049 -4,-124 -483,-1537 -531,-1595"/>
  <path class="fil0 str0" d="M23923 35233c313,930 1783,-243 1912,142 124,368 2482,405 2817,154 9,-7 213,-109 231,-114l-48 16"/>
  <path class="fil0 str0" d="M29216 36637c156,154 -79,141 -292,141 -429,0 -1228,233 -1980,233 -634,0 -570,38 -1174,-143 -507,-152 -2342,-264 -2011,-932 5,-10 436,-321 525,-421l2 69"/>
  <path class="fil0 str0" d="M29591 37823c-517,-88 -1997,415 -2915,415 -541,0 -606,160 -944,-46 -81,-49 -1002,66 -1481,-139 -247,-105 -923,-74 -1598,-430 -44,-24 -1589,-382 -1330,-889 3,-7 1409,-207 1584,-279 194,-80 734,-203 866,-341 80,15 7,-113 -14,-178"/>
  <path class="fil0 str0" d="M29899 38581c-258,158 -2988,673 -3396,673 -958,0 -2312,65 -3175,-270 -407,-157 -1819,-181 -2261,-598 -188,-177 -1983,-1216 -2168,-1497 -205,-313 -658,-401 90,-327 367,37 428,152 1066,152 194,0 1174,-56 1268,20"/>
  <path class="fil0 str0" d="M30389 39542c-50,-17 -4026,918 -4815,898 -1566,-41 -1836,130 -3383,-357 -1924,-604 -1578,-382 -3385,-1508 -1565,-976 -1105,-714 -2128,-2074 -562,-748 856,-29 1228,-41 6,0 322,95 475,104 195,12 452,21 637,48l-29 -50"/>
  <path class="fil0 str0" d="M29584 39709c87,748 776,1576 -325,1639 -496,28 -1124,414 -1699,-210 -272,-295 -720,-135 -1144,-793"/>
  <path class="fil0 str0" d="M24219 40437c-15,-6 -1834,130 -2122,130 -2044,0 -1566,-338 -3185,-759 -991,-257 -1867,-573 -2367,-1464 -391,-695 -1150,-1407 -1526,-2244 -121,-269 -954,-1132 374,-522 535,247 736,417 1354,587"/>
  <path class="fil0 str0" d="M16953 38880c-646,-51 -1427,-700 -1888,-1150 -758,-739 -599,-917 -1106,-1774 -137,-231 -435,-1083 -6,-1083 762,0 986,603 1091,560"/>
  <path class="fil0 str0" d="M13953 34873c-133,104 -504,-809 -593,-921 -8,-9 -16,-20 -22,-30"/>
  <circle class="fil0 str0" cx="23949" cy="33224" r="894"/>
  <circle class="fil0 str0" cx="12900" cy="31245" r="720"/>
  <circle class="fil0 str0" cx="14530" cy="27160" r="572"/>
  <circle class="fil0 str0" cx="15017" cy="24853" r="889"/>
  <circle class="fil0 str0" cx="18531" cy="27224" r="550"/>
  <circle class="fil0 str0" cx="15133" cy="26345" r="603"/>
  <circle class="fil0 str0" cx="14297" cy="30102" r="635"/>
  <circle class="fil0 str0" cx="12879" cy="28642" r="487"/>
  <circle class="fil0 str0" cx="10339" cy="29827" r="572"/>
  <circle class="fil0 str0" cx="10424" cy="27329" r="953"/>
  <circle class="fil0 str0" cx="24306" cy="33581" r="357"/>
  <path class="fil1 str0" style="mask:url(#id0)" d="M23949 32330c494,0 895,400 895,894 0,494 -401,895 -895,895 -494,0 -894,-401 -894,-895 0,-494 400,-894 894,-894zm4888 3106c0,-2 -1,-3 -2,-5l46 -15c-7,2 -23,10 -44,20zm5168 -4096c737,-1108 755,-1378 755,-2616 29,-369 -280,-1774 -275,-1963 7,-229 -764,-4219 -893,-4663 -220,-760 -400,-1079 -442,-1949 -25,-515 -235,-3147 -316,-3448 -8,-107 179,-335 354,-507 93,-90 182,-165 237,-199 483,-292 1666,-1102 2034,-1463 319,-314 952,-1212 1039,-1639 88,-432 -196,-3331 -487,-3491 -558,-306 -1168,518 -1251,907 -83,389 -2235,972 -2665,1060 -412,84 -962,972 -954,1162 50,1173 -102,22 -270,-257 -1211,-2020 -2620,-658 -3512,-2094 -877,-1412 -828,-190 -1007,296 -275,746 31,1600 5,2161 -17,372 526,2035 741,2228 156,140 1059,799 1074,820 134,191 2235,1105 2503,1169 277,671 206,2513 243,3302 45,957 -231,1393 -300,1948 -146,1191 -394,991 -589,1689 -447,1609 -878,1091 -1411,1683 -592,658 -3055,1445 -3838,1411 -903,-38 -3061,442 -3937,512 -1239,100 -2732,1048 -3044,1097 -950,150 -2676,2447 -2914,3175 -575,1758 -1160,1293 -1547,2251 6,10 14,21 22,30 81,102 391,856 549,924 14,-2 28,-3 44,-3 650,0 908,438 1036,541 17,6 36,12 55,19 95,34 210,82 349,145 535,247 736,417 1354,587 319,39 933,302 1159,295 6,0 322,95 475,104 62,4 131,7 201,11 -35,-46 47,-48 407,-13 367,37 428,152 1066,152 194,0 1174,-56 1268,20 3,-7 1409,-207 1584,-279 176,-73 638,-181 820,-303 -16,-65 -7,-136 32,-216 4,-9 324,-240 470,-368 24,-21 43,-39 55,-53l2 69c549,127 1449,-506 1549,-209 124,368 2482,405 2817,154 7,-5 119,-62 185,-93 157,445 377,1117 379,1201 70,69 61,104 11,122 53,368 274,698 324,927 9,39 22,86 40,137 73,223 212,541 308,758 54,124 94,214 99,234 78,337 218,562 391,727 447,423 1120,450 1572,966 308,353 1391,228 1868,228 1201,0 1532,-324 2143,-362 1138,-71 717,-1085 55,-1545 -551,-382 -1544,-1543 -1501,-2191 -19,-9 -37,-19 -55,-30 -304,-115 -587,-1115 -679,-1407 -327,-1034 -972,-550 -1376,-1088 -168,-91 -259,-202 -171,-342 362,-132 765,-839 871,-1087 193,-448 633,-959 889,-1344z"/>
  <path class="fil2 str0" d="M33116 32684c-106,248 -509,955 -871,1087 50,146 107,257 171,342 367,197 1101,296 1164,384 9,13 182,609 351,871 69,106 23,96 120,224 0,-70 752,-1554 854,-1666 239,-266 604,-1331 797,-1657l-2 -42c86,-696 193,-605 193,-1542 0,-1562 -276,-2835 -276,-4279 0,-431 -511,-2862 -698,-3180 -267,-455 -410,-2194 -537,-2683 -164,-308 -824,-2211 -797,-2519 1,-7 -374,-1394 -359,-1736 2,-66 -21,-61 -38,-94 -175,172 -362,400 -354,507 81,301 291,2933 316,3448 42,870 222,1189 442,1949 129,444 900,4434 893,4663 -5,189 304,1594 275,1963 0,1238 -18,1508 -755,2616 -256,385 -696,896 -889,1344z"/>
  <path class="fil2 str0" d="M34905 33926c-102,112 -854,1596 -854,1666 0,289 128,831 420,1016 19,7 38,11 56,11 337,0 265,-191 607,-515 491,-466 395,-1470 1016,-2242 326,-406 746,-4314 417,-5009 -119,-252 -233,-2656 -404,-3071 -117,-283 -344,-1843 -551,-2179 -296,-482 -28,-604 -783,-1545 -14,-17 -21,-44 -26,-65 -100,12 -216,-1067 -421,-1450 127,489 270,2228 537,2683 187,318 698,2749 698,3180 0,1444 276,2717 276,4279 0,937 -107,846 -193,1542l2 42c-193,326 -558,1391 -797,1657z"/>
  <path class="fil2 str0" d="M29216 36637c-2,-84 -222,-756 -379,-1201 -66,31 -178,88 -185,93 -335,251 -2693,214 -2817,-154 -100,-297 -1000,336 -1549,209 -19,-4 -38,-10 -57,-16 -146,128 -466,359 -470,368 21,65 94,193 14,178 -12,13 -28,25 -46,38 118,479 1596,582 2043,716 604,181 540,143 1174,143 752,0 1551,-233 1980,-233 117,0 242,4 303,-19 -6,-40 -9,-81 -11,-122z"/>
  <path class="fil2 str0" d="M28924 36778c-429,0 -1228,233 -1980,233 -634,0 -570,38 -1174,-143 -447,-134 -1925,-237 -2043,-716 -182,122 -644,230 -820,303 -175,72 -1581,272 -1584,279 -259,507 1286,865 1330,889 675,356 1351,325 1598,430 479,205 1400,90 1481,139 338,206 403,46 944,46 918,0 2398,-503 2915,-415 -18,-51 -31,-98 -40,-137 -50,-229 -271,-559 -324,-927 -61,23 -186,19 -303,19z"/>
  <path class="fil2 str0" d="M29591 37823c-517,-88 -1997,415 -2915,415 -541,0 -606,160 -944,-46 -81,-49 -1002,66 -1481,-139 -247,-105 -923,-74 -1598,-430 -44,-24 -1589,-382 -1330,-889 -94,-76 -1074,-20 -1268,-20 -638,0 -699,-115 -1066,-152l29 50c-126,-18 -285,-29 -436,-37 38,50 211,152 317,314 185,281 1980,1320 2168,1497 442,417 1854,441 2261,598 863,335 2217,270 3175,270 408,0 3138,-515 3396,-673 -96,-217 -235,-535 -308,-758z"/>
  <path class="fil2 str0" d="M29899 38581c-258,158 -2988,673 -3396,673 -958,0 -2312,65 -3175,-270 -407,-157 -1819,-181 -2261,-598 -188,-177 -1983,-1216 -2168,-1497 -106,-162 -279,-264 -317,-314 -70,-4 -139,-7 -201,-11 -153,-9 -469,-104 -475,-104 -226,7 -840,-256 -1159,-295 -205,-25 -289,43 -69,336 1023,1360 563,1098 2128,2074 1807,1126 1461,904 3385,1508 958,301 1426,351 2016,354 7,0 11,0 12,0 359,2 765,-13 1355,3 164,4 466,-33 842,-95 926,-151 2302,-449 3168,-636 471,-103 791,-172 805,-167 -173,-165 -313,-390 -391,-727 -5,-20 -45,-110 -99,-234z"/>
  <path class="fil2 str0" d="M22191 40083c-1924,-604 -1578,-382 -3385,-1508 -1565,-976 -1105,-714 -2128,-2074 -220,-293 -136,-361 69,-336 -618,-170 -819,-340 -1354,-587 -139,-63 -254,-111 -349,-145 -15,6 -33,-1 -55,-19 -725,-239 -76,450 30,686 376,837 1135,1549 1526,2244 116,208 253,384 408,536 507,499 1199,731 1959,928 1619,421 1141,759 3185,759 276,0 1951,-125 2110,-130 -590,-3 -1058,-53 -2016,-354z"/>
  <path class="fil2 str0" d="M16545 38344c-391,-695 -1150,-1407 -1526,-2244 -106,-236 -755,-925 -30,-686 -128,-103 -386,-541 -1036,-541 -12,10 -28,10 -44,3 -363,59 -81,858 50,1080 507,857 348,1035 1106,1774 461,450 1242,1099 1888,1150 -155,-152 -292,-328 -408,-536z"/>
  <path class="fil3 str0" d="M29584 39709c-866,187 -2242,485 -3168,636 424,658 872,498 1144,793 575,624 1203,238 1699,210 1101,-63 412,-891 325,-1639z"/>
  <path class="fil1 str0" d="M29584 39709c-866,187 -2242,485 -3168,636 424,658 872,498 1144,793 575,624 1203,238 1699,210 1101,-63 412,-891 325,-1639z"/>
  <path class="fil4 str0" d="M23949 33581c0,-197 160,-357 357,-357 198,0 358,160 358,357 0,198 -160,358 -358,358 -197,0 -357,-160 -357,-358zm0 538c494,0 895,-401 895,-895 0,-494 -401,-894 -895,-894 -494,0 -894,400 -894,894 0,494 400,895 894,895z"/>
  <path class="fil5 str0" d="M24306 33224c-197,0 -357,160 -357,357 0,198 160,358 357,358 198,0 358,-160 358,-358 0,-197 -160,-357 -358,-357z"/>
  <path class="fil6 str0" d="M10424 28282c526,0 952,-427 952,-953 0,-526 -426,-952 -952,-952 -526,0 -953,426 -953,952 0,526 427,953 953,953z"/>
  <path class="fil7 str0" d="M10424 28282c526,0 952,-427 952,-953 0,-526 -426,-952 -952,-952 -526,0 -953,426 -953,952 0,526 427,953 953,953z"/>
  <path class="fil7 str0" d="M10911 29827c0,-316 -256,-571 -572,-571 -316,0 -571,255 -571,571 0,316 255,572 571,572 316,0 572,-256 572,-572z"/>
  <path class="fil7 str0" d="M12900 30526c-397,0 -719,322 -719,719 0,398 322,720 719,720 398,0 720,-322 720,-720 0,-397 -322,-719 -720,-719z"/>
  <path class="fil7 str0" d="M13662 30102c0,351 284,635 635,635 351,0 635,-284 635,-635 0,-350 -284,-635 -635,-635 -351,0 -635,285 -635,635z"/>
  <path class="fil7 str0" d="M12879 29129c269,0 487,-218 487,-487 0,-269 -218,-487 -487,-487 -269,0 -487,218 -487,487 0,269 218,487 487,487z"/>
  <path class="fil7 str0" d="M13959 27160c0,316 255,572 571,572 316,0 572,-256 572,-572 0,-76 -16,-149 -43,-216 -213,-26 -392,-164 -477,-353 -17,-2 -34,-2 -52,-2 -316,0 -571,255 -571,571z"/>
  <path class="fil7 str0" d="M14582 26591c217,19 398,160 477,353 24,3 49,4 74,4 333,0 604,-270 604,-603 0,-333 -271,-603 -604,-603 -333,0 -603,270 -603,603 0,88 19,171 52,246z"/>
  <path class="fil7 str0" d="M15017 25742c491,0 889,-398 889,-889 0,-491 -398,-889 -889,-889 -491,0 -889,398 -889,889 0,491 398,889 889,889z"/>
  <path class="fil7 str0" d="M18531 26673c-304,0 -551,247 -551,551 0,303 247,550 551,550 303,0 550,-247 550,-550 0,-304 -247,-551 -550,-551z"/>
  <path class="fil7 str0" d="M15059 26944c-79,-193 -260,-334 -477,-353 85,189 264,327 477,353z"/>
  <g id="_2390752438032">
   <path class="fil3" d="M5764 12679l-707 707c-58,58 -116,104 -173,136l356 -356c941,-1306 2031,-5374 3600,-6943l707 -707c709,-709 1517,-907 2452,-108 2003,1711 1455,390 4473,-624 1856,-623 5892,-2306 7540,-789 2088,1922 2218,2905 6280,1321 2683,-1046 5232,-2379 7727,-3761l-708 707c-2494,1382 -5043,2715 -7726,3761 -4062,1584 -4192,601 -6280,-1320 -1648,-1517 -5684,165 -7540,788 -3018,1014 -2470,2335 -4473,624 -783,-669 -1477,-639 -2098,-195 -1480,1900 -2517,5846 -3430,6759z"/>
  </g>
  <path class="fil0" d="M5238 13169c1436,-809 3137,-10201 6408,-7407 2002,1710 1454,389 4473,-624 1856,-624 5892,-2306 7540,-789 2087,1921 2218,2905 6280,1321 2683,-1047 5231,-2379 7726,-3762"/>
  <g id="_2390752436304">
   <path class="fil3" d="M48094 5957c301,3276 1817,11368 -162,13871 -1897,2398 -2471,1472 -1933,5617 283,2184 2137,3982 2250,8128 80,2940 2359,4407 522,6674l-707 707c1837,-2267 -442,-3734 -522,-6674 -113,-4146 -1967,-5944 -2250,-8128 -538,-4144 36,-3219 1933,-5617 1979,-2503 463,-10594 162,-13871l707 -707z"/>
  </g>
  <path class="fil0" d="M47740 6311c301,3276 1818,11368 -162,13871 -1896,2398 -2470,1472 -1933,5617 284,2184 2138,3982 2250,8128 80,2940 2360,4406 523,6674"/>
  <g id="_2390752436112">
   <path class="fil3" d="M4829 46936c2458,0 5701,-4276 9483,-423 5517,5619 16800,188 21907,2956 4447,2410 7649,3902 12806,3902l-707 707c-5157,0 -8359,-1492 -12806,-3902 -5108,-2768 -16390,2664 -21907,-2956 -3783,-3853 -7025,423 -9483,423l707 -707z"/>
  </g>
  <path class="fil0" d="M4476 47289c2458,0 5700,-4276 9482,-423 5518,5620 16800,188 21907,2956 4447,2410 7649,3902 12807,3902"/>
  <g id="_2390752435696">
   <path class="fil3" d="M6855 35124l-707 707c-63,63 -145,107 -248,128l385 -385c381,-1486 -2861,-6667 -2840,-7743 21,-1065 184,-1595 422,-1834l708 -707c404,-405 1027,28 1547,114 -231,-1217 -2810,-3378 664,-6852l707 -707c446,-446 991,-914 1654,-1404 434,-320 1627,-1294 2566,-2179 284,-308 484,-570 537,-740l707 -707c-71,228 -407,622 -856,1071l-707 707c-966,967 -2457,2188 -2954,2556 -488,360 -912,708 -1280,1045 -3485,3840 450,6007 -454,7038l-27 30 -708 707c-419,420 -1115,-139 -1671,-142 -84,302 -137,721 -148,1297 -23,1151 3695,7008 2703,8000z"/>
  </g>
  <path class="fil0" d="M6254 35605c1727,-357 -2480,-6903 -2456,-8128 72,-3640 1802,-1032 2555,-1891 1033,-1179 -4257,-3842 2441,-8791 727,-538 3586,-2907 3810,-3626"/>
  <g id="_2390752428112">
   <polygon class="fil8" points="1851,2959 1802,2426 1276,2544 1772,2333 1496,1873 1851,2276 2206,1873 1930,2333 2426,2544 1900,2426 "/>
   <polygon class="fil9" points="4161,1976 4112,1442 3586,1561 4082,1350 3806,890 4161,1293 4516,890 4240,1350 4736,1561 4210,1442 "/>
   <polygon class="fil10" points="7308,-390 6781,766 8003,1140 6734,992 6762,2264 6504,1016 5299,1428 6409,805 5636,-212 6580,651 "/>
   <polygon class="fil11" points="10303,738 9225,694 9322,1774 9032,729 8041,1158 8940,556 8230,-260 9075,413 9628,-519 9251,499 "/>
   <polygon class="fil12" points="10484,530 11685,414 11412,-769 11893,345 12926,-281 12022,523 12933,1319 11894,702 11424,1820 11686,634 "/>
   <polygon class="fil13" points="12959,221 13975,983 14603,-130 14185,1077 15434,1324 14160,1307 14304,2573 13933,1356 12774,1892 13819,1155 "/>
   <polygon class="fil14" points="17036,491 16635,1697 17890,1939 16613,1926 16775,3188 16386,1975 15232,2512 16269,1775 15393,846 16423,1603 "/>
   <polygon class="fil15" points="18589,-611 19455,1750 21696,577 19703,2133 21511,3886 19413,2487 18289,4744 18985,2323 16483,1964 19011,1868 "/>
   <polygon class="fil16" points="21629,-771 21890,2078 24697,1444 22051,2571 23525,5028 21628,2876 19732,5028 21206,2571 18560,1444 21368,2077 "/>
   <polygon class="fil17" points="24169,2663 24120,2130 23594,2248 24090,2037 23813,1577 24169,1980 24524,1577 24248,2037 24744,2248 24218,2130 "/>
   <polygon class="fil18" points="26709,2643 26660,2110 26134,2229 26630,2017 26353,1557 26709,1960 27064,1557 26788,2018 27283,2229 26757,2110 "/>
   <polygon class="fil19" points="29905,797 29378,1954 30601,2328 29332,2179 29359,3452 29102,2204 27896,2616 29006,1993 28234,976 29177,1838 "/>
   <polygon class="fil20" points="32915,2375 31837,2331 31934,3412 31645,2367 30653,2796 31552,2194 30842,1378 31687,2051 32240,1118 31863,2136 "/>
   <polygon class="fil21" points="33066,2669 34267,2553 33994,1370 34474,2485 35508,1858 34604,2662 35515,3458 34476,2841 34005,3959 34267,2774 "/>
   <polygon class="fil22" points="35653,2049 36670,2812 37297,1698 36880,2906 38129,3152 36854,3136 36998,4402 36628,3184 35469,3720 36514,2984 "/>
   <polygon class="fil23" points="39810,1668 39408,2874 40664,3116 39386,3103 39548,4365 39160,3152 38005,3689 39042,2952 38166,2023 39196,2780 "/>
   <polygon class="fil24" points="41311,-201 42177,2160 44419,987 42426,2543 44233,4296 42135,2897 41011,5153 41708,2733 39205,2374 41734,2277 "/>
   <polygon class="fil25" points="44232,-1191 44494,1658 47301,1024 44655,2152 46129,4608 44232,2456 42336,4608 43810,2151 41164,1024 43972,1658 "/>
   <polygon class="fil26" points="46733,2347 46684,1813 46158,1932 46654,1721 46378,1260 46733,1664 47088,1260 46812,1721 47308,1932 46782,1813 "/>
   <polygon class="fil27" points="49149,2033 49100,1500 48574,1618 49070,1407 48794,947 49149,1350 49504,947 49228,1407 49724,1618 49198,1500 "/>
  </g>
  <path class="fil0" d="M1851 2416c977,-1284 10239,-2449 11459,-1616 3584,2446 15103,496 20714,1807 7715,1803 9291,-2046 12771,-784 1225,445 1916,-95 2808,-592"/>
  <g id="_2390752488624">
   <polygon class="fil8" points="53074,2959 53025,2426 52500,2544 52995,2333 52719,1873 53074,2276 53430,1873 53154,2333 53649,2544 53123,2426 "/>
   <polygon class="fil9" points="53201,5496 53152,4962 52627,5081 53122,4870 52846,4410 53201,4813 53557,4410 53281,4870 53776,5081 53250,4962 "/>
   <polygon class="fil28" points="54028,6160 53501,7316 54723,7690 53454,7542 53482,8814 53224,7566 52019,7979 53129,7356 52356,6338 53300,7201 "/>
   <polygon class="fil29" points="54604,10135 53526,10091 53623,11172 53334,10127 52342,10555 53241,9953 52531,9138 53376,9811 53929,8878 53553,9896 "/>
   <polygon class="fil30" points="52189,12568 53390,12452 53117,11269 53598,12383 54631,11757 53727,12561 54638,13357 53599,12740 53129,13858 53391,12672 "/>
   <polygon class="fil31" points="52050,14093 53066,14856 53694,13742 53277,14950 54525,15196 53251,15180 53395,16446 53025,15228 51865,15764 52911,15028 "/>
   <polygon class="fil32" points="53546,16281 53145,17487 54400,17729 53122,17716 53285,18978 52896,17765 51741,18303 52779,17565 51903,16636 52932,17394 "/>
   <polygon class="fil33" points="52537,17492 53403,19853 55645,18680 53652,20236 55459,21989 53361,20590 52237,22847 52934,20426 50431,20067 52960,19971 "/>
   <polygon class="fil34" points="52847,19802 53109,22651 55916,22017 53270,23144 54744,25601 52847,23449 50951,25601 52425,23143 49779,22017 52587,22650 "/>
   <polygon class="fil35" points="52605,25773 52556,25239 52030,25358 52526,25147 52250,24686 52605,25089 52960,24686 52684,25147 53180,25358 52654,25239 "/>
   <polygon class="fil36" points="52491,28310 52442,27776 51916,27895 52412,27684 52136,27224 52491,27627 52846,27224 52570,27684 53066,27895 52540,27776 "/>
   <polygon class="fil37" points="53130,28979 52603,30136 53825,30510 52556,30361 52584,31634 52326,30386 51121,30798 52231,30175 51458,29158 52402,30020 "/>
   <polygon class="fil38" points="53662,32956 52584,32912 52682,33993 52392,32947 51401,33376 52299,32774 51589,31959 52434,32632 52987,31699 52611,32717 "/>
   <polygon class="fil39" points="51432,35387 52633,35271 52360,34088 52841,35202 53874,34576 52970,35380 53881,36176 52842,35559 52372,36677 52634,35491 "/>
   <polygon class="fil40" points="51697,36915 52713,37678 53341,36564 52923,37772 54172,38018 52898,38002 53042,39267 52671,38050 51512,38586 52557,37849 "/>
   <polygon class="fil41" points="53561,39095 53160,40301 54415,40543 53138,40530 53300,41793 52912,40579 51757,41117 52794,40380 51918,39450 52948,40208 "/>
   <polygon class="fil42" points="52892,40288 53758,42649 56000,41476 54007,43032 55814,44785 53716,43386 52592,45643 53289,43222 50786,42863 53315,42766 "/>
   <polygon class="fil43" points="53671,42589 53932,45437 56740,44804 54093,45931 55567,48387 53670,46235 51774,48387 53248,45930 50602,44804 53410,45437 "/>
   <polygon class="fil44" points="53698,48571 53649,48037 53123,48156 53619,47945 53343,47485 53698,47888 54054,47485 53777,47945 54273,48156 53747,48037 "/>
   <polygon class="fil45" points="53673,51111 53625,50577 53099,50696 53594,50485 53318,50024 53674,50428 54029,50024 53753,50485 54248,50696 53722,50577 "/>
  </g>
  <path class="fil0" d="M53074 2416c169,4931 734,7178 129,12608 -273,2445 20,4730 -361,7719 -790,6199 -221,15191 740,21549 199,1313 85,5624 85,7146"/>
  <g id="_2390752480016">
   <polygon class="fil46" points="2105,53590 2056,53056 1530,53175 2026,52964 1750,52504 2105,52907 2460,52504 2184,52964 2680,53175 2154,53056 "/>
   <polygon class="fil47" points="4528,52829 4479,52295 3953,52414 4449,52203 4173,51743 4528,52146 4883,51743 4607,52203 5103,52414 4577,52295 "/>
   <polygon class="fil10" points="7643,50320 7116,51476 8338,51850 7069,51702 7097,52974 6839,51726 5634,52138 6744,51515 5971,50498 6915,51361 "/>
   <polygon class="fil48" points="10605,51247 9527,51203 9624,52284 9335,51238 8343,51667 9242,51065 8532,50250 9377,50923 9930,49990 9553,51008 "/>
   <polygon class="fil49" points="10763,50776 11964,50661 11691,49478 12171,50592 13205,49966 12301,50770 13212,51566 12173,50948 11702,52067 11964,50881 "/>
   <polygon class="fil50" points="13374,49582 14391,50344 15018,49231 14601,50439 15849,50685 14575,50669 14719,51934 14349,50717 13190,51253 14235,50516 "/>
   <polygon class="fil51" points="17533,49265 17132,50470 18388,50712 17110,50700 17272,51962 16884,50748 15729,51286 16766,50549 15890,49619 16920,50377 "/>
   <polygon class="fil52" points="19075,48256 19941,50616 22183,49443 20190,50999 21997,52753 19899,51354 18775,53610 19472,51190 16969,50831 19498,50734 "/>
   <polygon class="fil53" points="22025,48700 22286,51548 25094,50914 22447,52042 23921,54498 22024,52346 20128,54498 21602,52041 18956,50914 21764,51548 "/>
   <polygon class="fil54" points="24549,52395 24500,51862 23974,51981 24470,51769 24194,51309 24549,51712 24904,51309 24628,51770 25124,51981 24598,51862 "/>
   <polygon class="fil55" points="27089,52444 27040,51911 26514,52030 27009,51818 26733,51358 27089,51761 27444,51358 27168,51819 27663,52030 27137,51911 "/>
   <polygon class="fil56" points="30285,50573 29758,51729 30981,52103 29712,51955 29739,53227 29482,51979 28276,52392 29386,51769 28614,50751 29557,51614 "/>
   <polygon class="fil57" points="33299,52009 32222,51965 32319,53046 32029,52000 31038,52429 31936,51827 31227,51011 32072,51685 32624,50752 32248,51770 "/>
   <polygon class="fil58" points="33483,51942 34685,51827 34412,50644 34892,51758 35926,51132 35022,51936 35933,52732 34894,52114 34423,53233 34685,52047 "/>
   <polygon class="fil59" points="36098,51088 37114,51850 37742,50737 37325,51944 38573,52191 37299,52174 37443,53440 37073,52222 35913,52758 36958,52022 "/>
   <polygon class="fil60" points="40245,50993 39844,52199 41099,52441 39821,52428 39984,53690 39595,52477 38440,53015 39478,52277 38602,51348 39631,52106 "/>
   <polygon class="fil24" points="41808,49667 42674,52028 44916,50854 42922,52410 44730,54164 42632,52765 41508,55021 42205,52601 39702,52242 42231,52145 "/>
   <polygon class="fil61" points="44847,49337 45108,52186 47915,51552 45269,52679 46743,55136 44846,52984 42950,55136 44424,52678 41778,51552 44586,52185 "/>
   <polygon class="fil62" points="47386,52740 47337,52207 46811,52325 47307,52114 47031,51654 47386,52057 47741,51654 47465,52114 47961,52325 47435,52207 "/>
   <polygon class="fil63" points="49915,52953 49866,52419 49340,52538 49836,52327 49560,51867 49915,52270 50270,51867 49994,52327 50490,52538 49964,52419 "/>
  </g>
  <path class="fil0" d="M2105 53047c5559,-1908 13847,-3590 19510,-1560 2288,820 12002,57 16381,691 3954,573 8017,-393 11924,233 966,154 1243,239 2054,-42"/>
  <g id="_2390752473968">
   <polygon class="fil64" points="1766,47325 1717,46791 1192,46910 1687,46699 1411,46238 1766,46641 2122,46238 1846,46699 2341,46910 1815,46791 "/>
   <polygon class="fil65" points="2096,44808 2047,44274 1521,44393 2017,44182 1741,43722 2096,44125 2451,43722 2175,44182 2671,44393 2145,44274 "/>
   <polygon class="fil66" points="2933,40404 2406,41561 3629,41935 2360,41786 2387,43058 2129,41811 924,42223 2034,41600 1262,40582 2205,41445 "/>
   <polygon class="fil67" points="3646,39313 2568,39269 2665,40350 2376,39305 1384,39733 2283,39131 1573,38316 2418,38989 2971,38056 2594,39074 "/>
   <polygon class="fil68" points="1715,36703 2916,36587 2643,35405 3124,36519 4157,35892 3253,36696 4164,37492 3125,36875 2655,37993 2917,36808 "/>
   <polygon class="fil69" points="2231,33196 3247,33959 3874,32845 3457,34053 4706,34299 3432,34283 3576,35548 3205,34331 2046,34867 3091,34130 "/>
   <polygon class="fil70" points="4210,30334 3809,31539 5064,31782 3786,31769 3949,33031 3560,31817 2405,32355 3443,31618 2567,30688 3597,31446 "/>
   <polygon class="fil71" points="3454,26475 4320,28836 6561,27663 4568,29219 6376,30972 4278,29573 3153,31830 3850,29409 1348,29050 3876,28953 "/>
   <polygon class="fil72" points="4053,23715 4314,26564 7122,25930 4475,27057 5949,29514 4052,27362 2156,29514 3630,27056 984,25930 3792,26563 "/>
   <polygon class="fil35" points="4352,24638 4303,24104 3777,24223 4273,24012 3996,23552 4352,23955 4707,23552 4431,24012 4927,24223 4401,24104 "/>
   <polygon class="fil73" points="5001,22184 4952,21650 4426,21769 4922,21558 4646,21098 5001,21501 5356,21098 5080,21558 5576,21769 5050,21651 "/>
   <polygon class="fil74" points="6460,17904 5933,19060 7155,19434 5886,19286 5914,20558 5656,19310 4451,19722 5561,19099 4788,18082 5732,18945 "/>
   <polygon class="fil75" points="7524,16874 6446,16830 6543,17911 6254,16866 5262,17294 6161,16692 5451,15877 6296,16550 6849,15617 6472,16635 "/>
   <polygon class="fil76" points="5204,14235 6405,14120 6132,12937 6613,14051 7646,13425 6742,14229 7653,15024 6614,14407 6144,15525 6405,14340 "/>
   <polygon class="fil77" points="4727,10756 5743,11519 6371,10405 5954,11613 7202,11859 5928,11843 6072,13109 5702,11891 4542,12427 5588,11691 "/>
   <polygon class="fil78" points="5392,8057 4991,9263 6246,9505 4968,9492 5130,10754 4742,9541 3587,10079 4624,9342 3748,8412 4778,9170 "/>
   <polygon class="fil79" points="3240,4477 4106,6838 6348,5665 4355,7221 6162,8974 4064,7575 2940,9832 3637,7411 1134,7053 3663,6956 "/>
   <polygon class="fil80" points="2675,1950 2936,4799 5744,4165 3097,5292 4572,7749 2674,5597 778,7749 2252,5291 -394,4165 2414,4798 "/>
  </g>
  <path class="fil0" d="M1766 46781c461,-2034 411,-5793 881,-8447 801,-4520 1299,-6792 1391,-11357 157,-7777 5484,-9616 -56,-19348 -278,-488 -2046,-4279 -2046,-4705"/>
 </g>
</svg>
